:version 1.10
:name ASF
:units
  mass 1
  length 1
  angle deg
:documentation
  ASF file generated by Kaydara
:root
  axis xyz
  order  tx ty tz rx ry rz
  position 0 0 0
  orientation 0 0 0
:bonedata
  begin
    id 1
    name LeftUpLegDummy
    direction 1 -2.30186e-007 -8.31532e-007
    length 2.93387
    axis 0 0 0 xyz
  end
  begin
    id 2
    name LeftUpLeg
    direction -1.82929e-007 -1 -1.48925e-009
    length 17.3336
    axis -3.48766 0.00143442 -0.000521554 xyz
    dof rx ry rz
  end
  begin
    id 3
    name LeftLeg
    direction -1.82929e-007 -1 -5.23717e-011
    length 14.9995
    axis 3.68178 -0.00654042 -0.000282425 xyz
    dof rx ry rz
  end
  begin
    id 4
    name LeftFoot
    direction 8.31532e-007 -4.54534e-011 1
    length 6.74421
    axis 1.87234e-006 4.66016e-005 -5.96866e-006 xyz
    dof rx ry rz
  end
  begin
    id 5
    name LeftToes
    direction 0.00818058 -0.00485161 0.999955
    length 3.85048
    axis 1.06247e-005 4.65869e-005 -5.96999e-006 xyz
    dof rx ry rz
  end
  begin
    id 6
    name SpineDummy
    direction -5.8607e-008 0.943407 -0.331637
    length 5.93572
    axis 0 0 0 xyz
  end
  begin
    id 7
    name Spine
    direction -1.04988e-007 0.999988 0.00495137
    length 10.1015
    axis -0.001389 0.000121417 6.61666e-006 xyz
    dof rx ry rz
  end
  begin
    id 8
    name Spine1
    direction 0 0 0
    length 0
    axis -0.001389 0.00012144 6.56766e-006 xyz
    dof rx ry rz
  end
  begin
    id 9
    name RightShoulderDummy
    direction -0.98348 0.17941 -0.0240696
    length 3.59882
    axis -0.001389 0.00012144 6.56766e-006 xyz
  end
  begin
    id 10
    name RightShoulder
    direction -0.978693 0.204882 0.0135597
    length 2.70001
    axis 0.215806 0.000203631 -0.00679732 xyz
    dof rx ry rz
  end
  begin
    id 11
    name RightArm
    direction -1 3.85509e-006 8.31394e-007
    length 10.2459
    axis -23.2009 -0.134239 -0.964098 xyz
    dof rx ry rz
  end
  begin
    id 12
    name RightForeArm
    direction -1 3.85569e-006 8.3129e-007
    length 8.16799
    axis -9.92322 0.0658061 0.17887 xyz
    dof rx ry rz
  end
  begin
    id 13
    name RightHand
    direction -0.992843 -0.0414604 0.112003
    length 5.28593
    axis -0.00960638 0.00330669 -0.185225 xyz
    dof rx ry rz
  end
  begin
    id 14
    name LeftShoulder1Dummy
    direction 0.983523 0.179172 -0.0240748
    length 3.59866
    axis -0.001389 0.00012144 6.56766e-006 xyz
  end
  begin
    id 15
    name LeftShoulder1
    direction 0.978627 0.205195 0.0135605
    length 2.70019
    axis -0.001389 0.00012144 6.57583e-006 xyz
    dof rx ry rz
  end
  begin
    id 16
    name LeftArm
    direction 1 3.51895e-006 -8.60188e-007
    length 10.2459
    axis -23.1894 0.134785 0.967513 xyz
    dof rx ry rz
  end
  begin
    id 17
    name LeftForeArm
    direction 1 3.51921e-006 -7.32029e-007
    length 8.16799
    axis -9.91835 -0.0656957 -0.177789 xyz
    dof rx ry rz
  end
  begin
    id 18
    name LeftHand
    direction 0.992938 -0.0411636 0.11126
    length 5.32135
    axis -0.00960237 -0.00340661 0.185177 xyz
    dof rx ry rz
  end
  begin
    id 19
    name HEadDummy
    direction 1.01974e-006 0.999861 -0.016675
    length 2.99946
    axis -0.001389 0.00012144 6.56766e-006 xyz
  end
  begin
    id 20
    name HEad
    direction -0.0222689 0.980941 0.193023
    length 5.12695
    axis -0.001389 0.00012144 6.56766e-006 xyz
    dof rx ry rz
  end
  begin
    id 21
    name RightUpLegDummy
    direction -1 2.30186e-007 8.31532e-007
    length 2.93387
    axis 0 0 0 xyz
  end
  begin
    id 22
    name RightUpLeg
    direction -1.82966e-007 -1 1.56832e-007
    length 17.3336
    axis -3.4909 -0.000906625 0.00028951 xyz
    dof rx ry rz
  end
  begin
    id 23
    name RightLeg
    direction -1.82786e-007 -1 -1.80317e-007
    length 14.9995
    axis 3.68513 0.0193739 -0.131021 xyz
    dof rx ry rz
  end
  begin
    id 24
    name RightFoot
    direction 8.31721e-007 -4.63324e-011 1
    length 6.74421
    axis 4.81691e-005 -0.120479 -0.188785 xyz
    dof rx ry rz
  end
  begin
    id 25
    name RightToes
    direction 0.00124746 -0.014064 0.9999
    length 3.85082
    axis 0.000481921 0.542163 -0.142575 xyz
    dof rx ry rz
  end
:hierarchy
  begin
    root LeftUpLegDummy SpineDummy RightUpLegDummy
    LeftUpLegDummy LeftUpLeg
    LeftUpLeg LeftLeg
    LeftLeg LeftFoot
    LeftFoot LeftToes
    SpineDummy Spine
    Spine Spine1
    Spine1 RightShoulderDummy LeftShoulder1Dummy HEadDummy
    RightShoulderDummy RightShoulder
    RightShoulder RightArm
    RightArm RightForeArm
    RightForeArm RightHand
    LeftShoulder1Dummy LeftShoulder1
    LeftShoulder1 LeftArm
    LeftArm LeftForeArm
    LeftForeArm LeftHand
    HEadDummy HEad
    RightUpLegDummy RightUpLeg
    RightUpLeg RightLeg
    RightLeg RightFoot
    RightFoot RightToes
  end

:SAMPLES-PER-SECOND 30
:FULLY-SPECIFIED
:DEGREES
292
root  10.5887 33.9224 25.9961 -165.323 66.3688 -169.931
LeftUpLeg  -22.2582 2.38641 16.3105
LeftLeg  7.62718 11.1666 0.764378
LeftFoot  5.17095 -0.0453828 1.005
LeftToes  -17.0747 1.61378e-006 8.80029e-008
Spine  4.04028 0.665775 -0.102114
Spine1  7.84959 1.69526 -0.70592
RightShoulder  0.0583253 4.141 6.27942
RightArm  -25.593 1.58593 56.0139
RightForeArm  37.3492 52.542 13.3397
RightHand  0.683321 -5.9404 -12.7283
LeftShoulder1  0.000683816 -0.565988 -6.55817
LeftArm  -29.7541 14.3941 -66.8297
LeftForeArm  33.92 -16.4677 -2.97805
LeftHand  0.136411 2.58462 5.65613
HEad  2.60451 -41.7176 -0.723809
RightUpLeg  -7.99649 -4.6584 10.0568
RightLeg  14.6759 17.9066 3.42473
RightFoot  -4.43074 -0.0709688 -1.45707
RightToes  -4.04124 -0.0113959 -0.0378519
293
root  11.0443 33.8333 25.4208 -160.363 68.4207 -165.188
LeftUpLeg  -23.6902 5.51948 16.4788
LeftLeg  1.88995 8.20653 -0.256067
LeftFoot  5.7974 -0.0413507 0.816621
LeftToes  -24.7725 1.61378e-006 8.80029e-008
Spine  3.93722 0.783434 0.351856
Spine1  7.68677 1.87655 0.277254
RightShoulder  0.060013 4.30792 6.75724
RightArm  -19.6478 -0.746798 60.6311
RightForeArm  36.6204 49.1304 11.7798
RightHand  0.48177 -4.8593 -10.9327
LeftShoulder1  0.000947214 -0.570082 -6.66919
LeftArm  -30.0824 13.0342 -65.8748
LeftForeArm  32.9937 -18.3236 -3.33789
LeftHand  0.1478 2.44993 6.51526
HEad  2.00657 -41.0803 -1.2001
RightUpLeg  -7.40234 -3.86405 10.551
RightLeg  15.2076 19.4905 3.89975
RightFoot  -5.26407 -0.104358 -1.89254
RightToes  -6.51077 -0.0196631 -0.0605528
294
root  11.508 33.7379 24.7782 -154.999 70.5615 -159.975
LeftUpLeg  -25.9081 9.23268 15.8494
LeftLeg  2.30022 4.06595 -0.0982423
LeftFoot  3.09544 -0.00542198 0.200661
LeftToes  -27.4101 1.61378e-006 8.80029e-008
Spine  3.78414 0.991233 0.754922
Spine1  7.43349 2.19246 1.15101
RightShoulder  0.0566051 4.32952 7.26074
RightArm  -16.0432 -3.42804 64.7746
RightForeArm  34.5029 42.359 9.25832
RightHand  0.321059 -3.88546 -9.0585
LeftShoulder1  0.00160209 -0.378199 -7.0943
LeftArm  -30.0178 12.0187 -64.8164
LeftForeArm  31.8423 -20.5035 -3.77101
LeftHand  0.138544 2.20094 6.81146
HEad  1.82171 -40.456 -1.7461
RightUpLeg  -6.76924 -2.28453 10.6714
RightLeg  16.0065 20.3608 4.35513
RightFoot  -6.36803 -0.154575 -2.40086
RightToes  -9.20973 -0.0298077 -0.0849296
295
root  12.0082 33.6517 24.0781 -149.77 72.4557 -154.859
LeftUpLeg  -25.6573 9.06018 16.1323
LeftLeg  2.8646 2.38402 -0.0343239
LeftFoot  3.96715 -0.00515304 0.149285
LeftToes  -22.2399 1.61378e-006 8.80029e-008
Spine  3.61448 1.09307 1.00763
Spine1  7.13193 2.34689 1.81184
RightShoulder  0.054804 4.58809 8.05265
RightArm  -16.3549 -6.52574 68.1971
RightForeArm  34.1555 33.4506 6.68397
RightHand  0.224934 -3.86448 -6.27917
LeftShoulder1  0.00274932 0.0315979 -7.63126
LeftArm  -29.9926 11.2405 -63.8066
LeftForeArm  31.0144 -22.3979 -4.15774
LeftHand  0.11487 1.82484 6.8074
HEad  1.6408 -39.6761 -2.33633
RightUpLeg  -5.85212 -1.03067 10.347
RightLeg  16.4505 21.3041 4.71552
RightFoot  -7.3708 -0.212677 -2.92369
RightToes  -11.754 -0.0404121 -0.107448
296
root  12.6275 33.5683 23.3136 -146.314 74.8104 -151.518
LeftUpLeg  -25.3395 7.17048 15.9704
LeftLeg  6.39298 1.17506 0.0549051
LeftFoot  3.88541 -0.00208138 0.0613533
LeftToes  -18.6181 1.61378e-006 8.80029e-008
Spine  3.43272 1.10265 1.00726
Spine1  6.76261 2.38522 1.85853
RightShoulder  0.0718612 5.2885 8.81676
RightArm  -22.3403 -9.53063 71.1476
RightForeArm  35.108 21.5802 3.98856
RightHand  0.180053 -4.19526 -4.53575
LeftShoulder1  0.00448977 0.428267 -8.31604
LeftArm  -30.0907 11.0394 -62.6543
LeftForeArm  30.0626 -23.1313 -4.31072
LeftHand  0.108112 1.7028 6.86732
HEad  1.58166 -38.5541 -3.34028
RightUpLeg  -4.59638 0.11802 8.90031
RightLeg  16.8174 22.4023 5.09184
RightFoot  -8.5642 -0.297454 -3.59378
RightToes  -14.3678 -0.0523363 -0.130069
297
root  13.339 33.4329 22.5068 -142.767 77.6565 -148.217
LeftUpLeg  -23.979 3.92654 15.961
LeftLeg  7.06162 0.964743 0.0561597
LeftFoot  7.41186 -0.00543181 0.0838527
LeftToes  -23.4016 1.61378e-006 8.80029e-008
Spine  3.13449 0.960922 0.849635
Spine1  6.12354 2.16586 1.53197
RightShoulder  0.138603 6.36751 9.97785
RightArm  -33.4562 -13.6807 72.5763
RightForeArm  36.6252 13.7595 2.46526
RightHand  0.301984 -5.0424 -6.47178
LeftShoulder1  0.00692434 1.02201 -9.04353
LeftArm  -30.1537 11.7838 -61.4461
LeftForeArm  29.3323 -23.7152 -4.43371
LeftHand  0.0910734 1.36606 7.22141
HEad  1.63339 -36.8762 -4.37938
RightUpLeg  -3.76717 2.78732 6.98121
RightLeg  18.0588 22.1996 5.54095
RightFoot  -10.327 -0.424162 -4.31403
RightToes  -17.343 -0.0671475 -0.155123
298
root  13.9704 33.375 21.7576 -140.591 80.1771 -146.444
LeftUpLeg  -22.3815 0.593577 15.6933
LeftLeg  6.57448 3.41231 0.171566
LeftFoot  13.1192 -0.0824626 0.717113
LeftToes  -29.904 1.61378e-006 8.80029e-008
Spine  2.59234 0.371902 0.502391
Spine1  5.09157 0.851902 1.04303
RightShoulder  0.160017 7.89726 10.7213
RightArm  -47.5461 -18.4054 72.3286
RightForeArm  36.3305 6.58846 1.1634
RightHand  0.736978 -7.86746 -10.3079
LeftShoulder1  0.0101539 1.59578 -9.56908
LeftArm  -30.3655 12.9286 -60.2844
LeftForeArm  29.0929 -22.6369 -4.20831
LeftHand  0.0816412 1.17044 7.56508
HEad  1.81593 -35.0398 -5.2831
RightUpLeg  -3.40241 6.94357 5.15486
RightLeg  19.2615 19.8701 5.42049
RightFoot  -11.8915 -0.498164 -4.40325
RightToes  -17.7579 -0.0693156 -0.158555
299
root  14.5414 33.4175 21.0244 -144.589 82.3996 -150.653
LeftUpLeg  -21.0835 -0.297601 13.7806
LeftLeg  6.9662 5.87687 0.335861
LeftFoot  14.9935 -0.19391 1.47345
LeftToes  -36.9169 1.61378e-006 8.80029e-008
Spine  2.2423 -0.222486 -0.15674
Spine1  4.45409 -0.47319 -0.0159651
RightShoulder  0.120296 8.92198 10.3818
RightArm  -56.2432 -23.6197 71.6759
RightForeArm  33.6607 2.03533 0.362883
RightHand  1.55453 -12.6609 -13.5672
LeftShoulder1  0.0167963 1.60297 -9.70852
LeftArm  -30.7289 13.1571 -59.402
LeftForeArm  29.3176 -19.4252 -3.55715
LeftHand  0.0788124 1.13679 7.51573
HEad  1.44082 -33.8172 -5.66374
RightUpLeg  -2.96285 10.1231 2.82483
RightLeg  20.4591 17.3933 5.15423
RightFoot  -12.9417 -0.512452 -4.13855
RightToes  -17.6281 -0.068635 -0.157483
300
root  15.079 33.5498 20.2425 -153.939 84.627 -160.056
LeftUpLeg  -20.1613 2.44817 10.2917
LeftLeg  8.1967 3.25072 0.255606
LeftFoot  13.5941 -0.0879751 0.738084
LeftToes  -35.2651 1.61378e-006 8.80029e-008
Spine  2.23259 -0.379748 -1.0479
Spine1  4.4505 -0.821431 -1.59871
RightShoulder  0.0682946 9.06753 9.85797
RightArm  -58.7503 -28.5268 71.4129
RightForeArm  31.0085 0.624389 0.117663
RightHand  2.05829 -15.9681 -14.2216
LeftShoulder1  0.0299676 1.15963 -9.55762
LeftArm  -31.0684 12.4048 -58.8569
LeftForeArm  30.2944 -17.5507 -3.18918
LeftHand  0.0914129 1.42073 6.95858
HEad  0.566468 -33.3999 -5.31135
RightUpLeg  -2.57351 11.5922 0.0900858
RightLeg  21.8246 15.6656 5.05906
RightFoot  -12.994 -0.466036 -3.71321
RightToes  -19.4711 -0.0785299 -0.172556
301
root  15.5641 33.7364 19.4811 -156.728 86.3789 -163.052
LeftUpLeg  -19.5777 7.98201 7.2905
LeftLeg  9.03858 -0.874614 -0.0830498
LeftFoot  11.9009 0.0194218 -0.186345
LeftToes  -33.5586 1.61378e-006 8.80029e-008
Spine  2.25021 -0.205475 -1.51104
Spine1  4.46127 -0.4585 -2.49389
RightShoulder  0.0302794 8.68812 9.4195
RightArm  -57.7255 -32.8556 70.8029
RightForeArm  31.5953 0.938865 0.172323
RightHand  1.86362 -16.4855 -12.4373
LeftShoulder1  0.0378933 0.729487 -9.48806
LeftArm  -31.3942 10.9543 -58.7866
LeftForeArm  31.6948 -15.4777 -2.79111
LeftHand  0.116804 2.11427 5.9341
HEad  -0.304952 -33.3537 -4.78659
RightUpLeg  -2.63151 11.1256 -1.75212
RightLeg  23.1762 14.4043 5.0339
RightFoot  -11.6443 -0.350505 -3.05904
RightToes  -23.7543 -0.103361 -0.206301
302
root  15.9854 33.9144 18.7974 -156.22 88.0327 -162.715
LeftUpLeg  -18.7785 11.8454 5.16846
LeftLeg  9.05602 -3.37666 -0.318512
LeftFoot  11.072 0.0610934 -0.63033
LeftToes  -30.8547 1.61378e-006 8.80029e-008
Spine  2.39856 0.00212822 -1.76992
Spine1  4.67414 0.0289869 -3.03637
RightShoulder  0.00110157 8.19614 8.55652
RightArm  -55.1 -36.088 70.3164
RightForeArm  33.4578 2.42858 0.432002
RightHand  1.36301 -14.6463 -10.2019
LeftShoulder1  0.0465047 0.437794 -9.62459
LeftArm  -32.3348 9.37262 -59.1975
LeftForeArm  33.084 -13.7674 -2.4687
LeftHand  0.137725 2.66108 5.53995
HEad  -1.20847 -33.1118 -4.46547
RightUpLeg  -3.2328 9.60078 -3.23558
RightLeg  25.3048 13.0576 5.11665
RightFoot  -9.95414 -0.239864 -2.37645
RightToes  -29.2373 -0.138704 -0.24663
303
root  16.3669 34.0038 18.1743 -117.831 89.7182 -124.19
LeftUpLeg  -17.9772 12.2295 4.12389
LeftLeg  9.96334 -2.5043 -0.276721
LeftFoot  9.55898 0.0325521 -0.389331
LeftToes  -28.6742 1.61378e-006 8.80029e-008
Spine  2.70567 -0.0350086 -1.86504
Spine1  5.25224 -0.0163056 -3.21551
RightShoulder  -0.00478431 7.91347 7.75604
RightArm  -51.9578 -38.6198 69.838
RightForeArm  35.1078 8.48564 1.50325
RightHand  1.05992 -12.4968 -9.28314
LeftShoulder1  0.0538964 0.282843 -9.88156
LeftArm  -32.8399 8.31354 -59.9039
LeftForeArm  33.4682 -12.8607 -2.30005
LeftHand  0.172771 3.0373 6.12585
HEad  -2.18846 -32.3892 -4.12972
RightUpLeg  -4.37654 7.22057 -4.51722
RightLeg  28.9403 11.4586 5.35012
RightFoot  -8.48948 -0.16144 -1.79749
RightToes  -35.6109 -0.184404 -0.28901
304
root  16.7191 34.04 17.611 8.60789 88.0682 2.57372
LeftUpLeg  -17.0731 11.3882 3.49663
LeftLeg  11.1719 -0.223349 -0.0306579
LeftFoot  7.73976 -0.000124049 0.00182478
LeftToes  -26.7744 1.61378e-006 8.80029e-008
Spine  3.11209 -0.0793716 -2.03917
Spine1  6.04029 -0.0873753 -3.54432
RightShoulder  -0.00751254 7.63199 7.56789
RightArm  -48.8806 -39.1976 68.5553
RightForeArm  35.8964 12.6639 2.2626
RightHand  0.994872 -11.0893 -9.84572
LeftShoulder1  0.0626936 0.0129958 -10.0362
LeftArm  -32.1251 7.64107 -60.4079
LeftForeArm  32.941 -12.7442 -2.27892
LeftHand  0.196522 3.14119 6.77315
HEad  -2.98536 -31.4756 -3.48412
RightUpLeg  -6.15717 4.56464 -5.57306
RightLeg  33.7464 9.12198 5.23256
RightFoot  -6.65263 -0.0877498 -1.13228
RightToes  -42.9167 -0.242192 -0.330998
